:version 1.10
:name ASF
:units
  mass 1
  length 1
  angle deg
:documentation
  ASF file generated by Kaydara
:root
  axis xyz
  order  tx ty tz rx ry rz
  position 0 0 0
  orientation 0 0 0
:bonedata
  begin
    id 1
    name RightUpLegDummy
    direction -1 2.30186e-007 8.31532e-007
    length 4.46685
    axis 0 0 0 xyz
  end
  begin
    id 2
    name RightUpLeg
    direction -2.30187e-007 -1 1.24343e-010
    length 16.4045
    axis -3.49089 -0.000906625 0.000286804 xyz
    dof rx ry rz
  end
  begin
    id 3
    name RightLeg
    direction -2.30181e-007 -1 -4.17157e-009
    length 17.5097
    axis 3.68512 0.0193738 -0.131023 xyz
    dof rx ry rz
  end
  begin
    id 4
    name RightFoot
    direction 8.31421e-007 -4.51202e-011 1
    length 6.49508
    axis 4.81691e-005 -0.120479 -0.188788 xyz
    dof rx ry rz
  end
  begin
    id 5
    name RightToes
    direction 0.00124746 -0.014064 0.9999
    length 3.85082
    axis 0.000481921 0.542163 -0.142578 xyz
    dof rx ry rz
  end
  begin
    id 6
    name SpineDummy
    direction 0.0717043 0.9409 -0.331007
    length 10.0032
    axis 0 0 0 xyz
  end
  begin
    id 7
    name Spine
    direction 2.30186e-007 1 4.58806e-011
    length 9.84055
    axis -0.001389 0.000121418 2.40972e-006 xyz
    dof rx ry rz
  end
  begin
    id 8
    name Spine1
    direction 0 0 0
    length 0
    axis -0.001389 0.000121451 1.30017e-006 xyz
    dof rx ry rz
  end
  begin
    id 9
    name HEadDummy
    direction -0.00347485 0.950688 -0.310128
    length 8.00997
    axis -0.001389 0.000121451 1.30017e-006 xyz
  end
  begin
    id 10
    name HEad
    direction -0.0222688 0.980941 0.193023
    length 5.12695
    axis -0.001389 0.000121451 1.30017e-006 xyz
    dof rx ry rz
  end
  begin
    id 11
    name LeftShoulder1Dummy
    direction 0.988871 0.146793 -0.0242004
    length 3.5792
    axis -0.001389 0.000121451 1.30017e-006 xyz
  end
  begin
    id 12
    name LeftShoulder1
    direction 0.993832 0.108932 0.020779
    length 4.16823
    axis -0.001389 0.000121451 1.30017e-006 xyz
    dof rx ry rz
  end
  begin
    id 13
    name LeftArm
    direction 1 3.44807e-006 -8.31404e-007
    length 9.91437
    axis -23.1894 0.134784 0.967509 xyz
    dof rx ry rz
  end
  begin
    id 14
    name LeftForeArm
    direction 1 3.44842e-006 -8.31581e-007
    length 9.08575
    axis -9.91835 -0.06569 -0.177793 xyz
    dof rx ry rz
  end
  begin
    id 15
    name LeftHand
    direction 0.992938 -0.0411636 0.11126
    length 5.32135
    axis -0.00960232 -0.00340091 0.185173 xyz
    dof rx ry rz
  end
  begin
    id 16
    name RightShoulderDummy
    direction -0.988871 0.146793 -0.0241962
    length 3.5792
    axis -0.001389 0.000121451 1.30017e-006 xyz
  end
  begin
    id 17
    name RightShoulder
    direction -0.993832 0.108933 0.0207785
    length 4.16823
    axis 0.215806 0.000203643 -0.0068026 xyz
    dof rx ry rz
  end
  begin
    id 18
    name RightArm
    direction -1 3.90912e-006 8.31284e-007
    length 9.91437
    axis -23.2009 -0.134239 -0.964101 xyz
    dof rx ry rz
  end
  begin
    id 19
    name RightForeArm
    direction -1 3.90882e-006 8.31502e-007
    length 9.08575
    axis -9.92322 0.0658061 0.178867 xyz
    dof rx ry rz
  end
  begin
    id 20
    name RightHand
    direction -0.992843 -0.0414603 0.112003
    length 5.28593
    axis -0.00960638 0.00330671 -0.185228 xyz
    dof rx ry rz
  end
  begin
    id 21
    name LeftUpLegDummy
    direction 1 -2.30186e-007 -8.31532e-007
    length 4.46685
    axis 0 0 0 xyz
  end
  begin
    id 22
    name LeftUpLeg
    direction -2.30187e-007 -1 6.00931e-010
    length 16.4045
    axis -3.48766 0.00143442 -0.000524262 xyz
    dof rx ry rz
  end
  begin
    id 23
    name LeftLeg
    direction -2.30187e-007 -1 1.6669e-009
    length 17.5097
    axis 3.68178 -0.00654042 -0.000285133 xyz
    dof rx ry rz
  end
  begin
    id 24
    name LeftFoot
    direction 8.31532e-007 -4.54478e-011 1
    length 6.49508
    axis 1.87233e-006 4.66016e-005 -8.6538e-006 xyz
    dof rx ry rz
  end
  begin
    id 25
    name LeftToes
    direction 0.00818058 -0.00485161 0.999955
    length 3.85048
    axis 1.06247e-005 4.65869e-005 -8.65513e-006 xyz
    dof rx ry rz
  end
:hierarchy
  begin
    root RightUpLegDummy SpineDummy LeftUpLegDummy
    RightUpLegDummy RightUpLeg
    RightUpLeg RightLeg
    RightLeg RightFoot
    RightFoot RightToes
    SpineDummy Spine
    Spine Spine1
    Spine1 HEadDummy LeftShoulder1Dummy RightShoulderDummy
    HEadDummy HEad
    LeftShoulder1Dummy LeftShoulder1
    LeftShoulder1 LeftArm
    LeftArm LeftForeArm
    LeftForeArm LeftHand
    RightShoulderDummy RightShoulder
    RightShoulder RightArm
    RightArm RightForeArm
    RightForeArm RightHand
    LeftUpLegDummy LeftUpLeg
    LeftUpLeg LeftLeg
    LeftLeg LeftFoot
    LeftFoot LeftToes
  end

:SAMPLES-PER-SECOND 30
:FULLY-SPECIFIED
:DEGREES
1
root  -53.2903 31.4479 43.8343 -162.819 42.4487 -176.614
RightUpLeg  -35.7202 -1.42996 3.53888
RightLeg  45.1733 1.57222 1.3568
RightFoot  -18.1783 -0.151416 -0.56892
RightToes  -20.0602 -0.0817946 -0.177306
Spine  14.5268 -2.9831 -2.22925
Spine1  24.5316 -6.50544 -1.38063
HEad  16.5701 8.49918 7.59719
LeftShoulder1  0 -2.42657e-020 -4.95415e-022
LeftArm  -30.175 -33.8429 -74.659
LeftForeArm  32.6364 -20.6856 -3.80713
LeftHand  0.173724 -5.08553 -4.2862
RightShoulder  0 2.42657e-020 1.07489e-018
RightArm  -15.299 21.5439 86.3833
RightForeArm  39.852 30.5216 5.95334
RightHand  -1.0729 24.2921 -4.61326
LeftUpLeg  -45.9337 -9.18771 22.8813
LeftLeg  36.8431 -2.16211 -1.41692
LeftFoot  -6.44912 -0.0233386 -0.414262
LeftToes  -21.4889 9.37529e-007 1.1992e-007
2
root  -53.4203 31.039 43.5464 -161.125 43.0637 -176.131
RightUpLeg  -38.582 -1.19626 3.35231
RightLeg  48.3665 1.81947 1.75717
RightFoot  -19.677 -0.191922 -0.729121
RightToes  -22.2381 -0.0942832 -0.194569
Spine  15.4094 -3.2776 -2.86384
Spine1  25.9521 -7.28302 -1.80729
HEad  15.8833 9.60827 8.58519
LeftShoulder1  0 -2.42657e-020 -4.95415e-022
LeftArm  -33.992 -36.2358 -71.5465
LeftForeArm  29.8658 -20.0139 -3.67405
LeftHand  0.168433 -3.65758 -5.65214
RightShoulder  0 2.42657e-020 1.07489e-018
RightArm  -14.4028 22.5286 87.4849
RightForeArm  39.5343 30.8921 6.0428
RightHand  -1.01472 24.4823 -4.30562
LeftUpLeg  -48.8032 -8.75085 24.274
LeftLeg  39.3438 -1.92152 -1.38351
LeftFoot  -8.77395 -0.0328564 -0.428287
LeftToes  -21.1642 9.37529e-007 1.1992e-007
3
root  -53.5123 30.5687 43.2126 -158.835 43.7514 -174.941
RightUpLeg  -41.4867 0.426784 3.32254
RightLeg  51.8198 1.19038 1.27592
RightFoot  -20.8997 -0.159708 -0.48839
RightToes  -24.1716 -0.105914 -0.209488
Spine  16.3663 -3.54828 -3.5096
Spine1  27.5949 -8.03035 -2.2939
HEad  13.9093 11.243 9.15876
LeftShoulder1  0 -2.42657e-020 -4.95415e-022
LeftArm  -39.4523 -39.238 -67.5224
LeftForeArm  27.3318 -19.0596 -3.48573
LeftHand  0.121644 -2.31015 -6.4168
RightShoulder  0 2.42657e-020 1.07489e-018
RightArm  -13.2012 23.8933 88.5786
RightForeArm  39.2956 30.8953 6.04387
RightHand  -1.00117 24.5196 -4.23602
LeftUpLeg  -51.1278 -6.88271 24.8416
LeftLeg  42.5169 -1.38362 -1.11941
LeftFoot  -10.6543 -0.0513596 -0.550807
LeftToes  -22.0263 9.37529e-007 1.1992e-007
4
root  -53.643 29.9352 42.8432 -156.116 44.1544 -173.933
RightUpLeg  -45.6663 2.16779 2.9702
RightLeg  56.2354 0.672943 0.809265
RightFoot  -21.2216 -0.119694 -0.26137
RightToes  -31.0522 -0.151233 -0.259212
Spine  16.7556 -4.05156 -4.14316
Spine1  28.2719 -9.30358 -2.85752
HEad  12.4025 12.4718 9.75224
LeftShoulder1  0 -2.42657e-020 -4.95415e-022
LeftArm  -45.1197 -40.9651 -62.6464
LeftForeArm  23.9298 -18.5381 -3.38413
LeftHand  0.024905 -0.412297 -7.40809
RightShoulder  0 2.42657e-020 1.07489e-018
RightArm  -12.6328 23.907 89.7456
RightForeArm  39.6881 31.1218 6.09821
RightHand  -0.940264 24.7332 -3.91755
LeftUpLeg  -54.4876 -6.05152 26.0495
LeftLeg  46.2125 -0.0439155 -0.046852
LeftFoot  -10.688 -0.0928966 -0.993084
LeftToes  -29.1228 9.37529e-007 1.1992e-007
5
root  -53.7772 29.1137 42.5044 -152.985 43.8297 -172.676
RightUpLeg  -50.2151 3.60425 2.93499
RightLeg  61.2758 -0.10177 -0.255641
RightFoot  -22.9962 -0.0338729 0.211036
RightToes  -27.8688 -0.129524 -0.236884
Spine  16.8784 -4.78477 -4.51848
Spine1  28.54 -11.0849 -3.07578
HEad  10.0159 13.5479 10.2266
LeftShoulder1  0 -2.42657e-020 -4.95415e-022
LeftArm  -50.8791 -42.2976 -57.3095
LeftForeArm  20.1653 -18.2973 -3.33726
LeftHand  -0.0400415 0.48452 -9.67997
RightShoulder  0 2.42657e-020 1.07489e-018
RightArm  -12.5687 23.1681 90.4551
RightForeArm  39.634 31.9221 6.29415
RightHand  -0.848976 24.7678 -3.496
LeftUpLeg  -60.1744 -3.59174 26.5985
LeftLeg  52.4491 -1.48417 -1.7008
LeftFoot  -6.55008 -0.0563822 -0.985299
LeftToes  -35.1749 9.37529e-007 1.1992e-007
